<?xml version="1.0" ?><svg height="64" viewBox="0 0 64 64" width="64" xmlns="http://www.w3.org/2000/svg"><defs><style>.cls-1{fill:none;stroke:#000;stroke-linejoin:round;stroke-width:2px;}</style></defs><title/><g data-name="12-Data Analysis" id="_12-Data_Analysis"><rect class="cls-1" height="62" rx="2" ry="2" width="62" x="1" y="1"/><line class="cls-1" x1="1" x2="63" y1="9" y2="9"/><line class="cls-1" x1="4" x2="6" y1="5" y2="5"/><line class="cls-1" x1="8" x2="10" y1="5" y2="5"/><line class="cls-1" x1="58" x2="60" y1="5" y2="5"/><circle class="cls-1" cx="32" cy="36" r="19"/><circle class="cls-1" cx="32" cy="36" r="12"/><line class="cls-1" x1="32" x2="32" y1="17" y2="24"/><line class="cls-1" x1="44" x2="51" y1="36" y2="36"/><line class="cls-1" x1="40" x2="46" y1="44" y2="50"/><line class="cls-1" x1="31" x2="33" y1="36" y2="36"/><line class="cls-1" x1="35" x2="37" y1="36" y2="36"/><line class="cls-1" x1="27" x2="29" y1="36" y2="36"/><polyline class="cls-1" points="46 17 58 17 58 23 51 23"/><polyline class="cls-1" points="19 55 6 55 6 49 13 49"/><line class="cls-1" x1="59" x2="57" y1="27" y2="27"/><line class="cls-1" x1="55" x2="53" y1="27" y2="27"/><line class="cls-1" x1="11" x2="9" y1="45" y2="45"/><line class="cls-1" x1="7" x2="5" y1="45" y2="45"/><line class="cls-1" x1="7" x2="5" y1="37" y2="37"/><line class="cls-1" x1="59" x2="57" y1="35" y2="35"/><line class="cls-1" x1="5" x2="11" y1="41" y2="41"/><line class="cls-1" x1="53" x2="59" y1="31" y2="31"/><polyline class="cls-1" points="9 13 5 13 5 17"/><polyline class="cls-1" points="55 59 59 59 59 55"/></g></svg>