<?xml version="1.0" ?><svg height="64" viewBox="0 0 64 64" width="64" xmlns="http://www.w3.org/2000/svg"><defs><style>.cls-1{fill:none;stroke:#000;stroke-linejoin:round;stroke-width:2px;}</style></defs><title/><g data-name="24-Control and Option" id="_24-Control_and_Option"><rect class="cls-1" height="62" rx="2" ry="2" width="62" x="1" y="1"/><line class="cls-1" x1="1" x2="63" y1="9" y2="9"/><line class="cls-1" x1="4" x2="6" y1="5" y2="5"/><line class="cls-1" x1="8" x2="10" y1="5" y2="5"/><line class="cls-1" x1="58" x2="60" y1="5" y2="5"/><line class="cls-1" x1="10" x2="28" y1="38" y2="38"/><rect class="cls-1" height="8" rx="1" ry="1" width="10" x="27" y="32"/><line class="cls-1" x1="37" x2="54" y1="38" y2="38"/><line class="cls-1" x1="10" x2="28" y1="34" y2="34"/><line class="cls-1" x1="37" x2="54" y1="34" y2="34"/><line class="cls-1" x1="32" x2="32" y1="40" y2="32"/><line class="cls-1" x1="10" x2="22" y1="20" y2="20"/><rect class="cls-1" height="8" rx="1" ry="1" width="10" x="22" y="14"/><line class="cls-1" x1="32" x2="54" y1="20" y2="20"/><line class="cls-1" x1="27" x2="27" y1="22" y2="14"/><line class="cls-1" x1="10" x2="22" y1="16" y2="16"/><line class="cls-1" x1="20" x2="10" y1="56" y2="56"/><rect class="cls-1" height="8" rx="1" ry="1" width="10" x="20" y="50"/><line class="cls-1" x1="54" x2="32" y1="16" y2="16"/><line class="cls-1" x1="30" x2="54" y1="56" y2="56"/><line class="cls-1" x1="10" x2="20" y1="52" y2="52"/><line class="cls-1" x1="30" x2="54" y1="52" y2="52"/><line class="cls-1" x1="25" x2="25" y1="58" y2="50"/><line class="cls-1" x1="57" x2="57" y1="35" y2="33"/><line class="cls-1" x1="57" x2="57" y1="39" y2="37"/><line class="cls-1" x1="7" x2="7" y1="53" y2="51"/><line class="cls-1" x1="7" x2="7" y1="57" y2="55"/><line class="cls-1" x1="7" x2="7" y1="17" y2="15"/><line class="cls-1" x1="7" x2="7" y1="21" y2="19"/><line class="cls-1" x1="57" x2="57" y1="17" y2="15"/><line class="cls-1" x1="57" x2="57" y1="21" y2="19"/><line class="cls-1" x1="57" x2="57" y1="53" y2="51"/><line class="cls-1" x1="57" x2="57" y1="57" y2="55"/><line class="cls-1" x1="7" x2="7" y1="35" y2="33"/><line class="cls-1" x1="7" x2="7" y1="39" y2="37"/></g></svg>