<?xml version="1.0" ?><svg data-name="Layer 1" id="Layer_1" viewBox="0 0 256 256" xmlns="http://www.w3.org/2000/svg"><defs><style>.cls-1,.cls-2{fill:none;stroke:#000;stroke-linejoin:round;stroke-width:6px;}.cls-2{stroke-linecap:round;}</style></defs><title/><g data-name="2Pin" id="_2Pin"><rect class="cls-1" height="106.9" rx="12" ry="12" width="121.44" x="67.28" y="75.16"/><line class="cls-1" x1="67.28" x2="188.72" y1="106.47" y2="106.47"/><path class="cls-1" d="M87.38,74.27V29.53A10.77,10.77,0,0,1,98.11,18.8h0a10.77,10.77,0,0,1,10.74,10.74V74.27"/><path class="cls-1" d="M147.15,74.27V29.53A10.77,10.77,0,0,1,157.89,18.8h0a10.77,10.77,0,0,1,10.74,10.74V74.27"/><path class="cls-2" d="M147.29,237.2A123.12,123.12,0,0,1,128,200.44"/><rect class="cls-2" height="18.38" width="28.34" x="113.83" y="182.06"/><line class="cls-2" x1="87.38" x2="168.62" y1="128.61" y2="128.61"/></g></svg>